<svg width="392" height="392" xmlns="http://www.w3.org/2000/svg" xmlns:xlink="http://www.w3.org/1999/xlink" xml:space="preserve" overflow="hidden"><defs><clipPath id="clip0"><rect x="696" y="185" width="392" height="392"/></clipPath></defs><g clip-path="url(#clip0)" transform="translate(-696 -185)"><path d="M875.631 186 867.507 232.274 867.538 232.305C857.609 233.928 848.002 236.528 838.824 239.992L838.824 239.961 808.673 203.934 780.333 220.307 796.425 264.425 796.488 264.457C788.805 270.763 781.763 277.83 775.46 285.515L775.428 285.421 731.31 269.331 714.938 297.669 750.963 327.853C747.506 337.022 744.929 346.615 743.308 356.536L743.277 356.506 697.004 364.63 697.004 397.374 743.277 405.498 743.308 405.467C744.929 415.387 747.506 424.98 750.963 434.15L714.938 464.333 731.31 492.672 775.428 476.581 775.46 476.488C781.763 484.173 788.805 491.24 796.488 497.546L796.425 497.577 780.333 541.695 808.673 558.068 838.824 522.042 838.824 522.01C848.002 525.474 857.608 528.074 867.538 529.697L867.507 529.728 875.631 576.002 908.345 576.002 916.469 529.728 916.438 529.697C926.365 528.078 935.975 525.5 945.152 522.042L975.334 558.068 1003.67 541.695 987.551 497.577C995.217 491.286 1002.25 484.243 1008.55 476.581L1052.7 492.672 1069.04 464.333 1033.04 434.148C1036.5 424.979 1039.11 415.387 1040.73 405.465L1087 397.373 1087 364.629 1040.73 356.505C1039.11 346.594 1036.5 337.014 1033.04 327.853L1069.04 297.67 1052.7 269.331 1008.55 285.422C1002.25 277.759 995.217 270.717 987.551 264.426L1003.67 220.308 975.334 203.935 945.152 239.961C935.975 236.502 926.366 233.924 916.438 232.306L916.469 232.275 908.345 186.001 875.631 186.001ZM892.003 265.676C955.703 265.676 1007.36 317.301 1007.36 380.997 1007.36 444.693 955.708 496.318 892.003 496.318 828.299 496.318 776.682 444.693 776.682 380.997 776.682 317.301 828.308 265.676 892.003 265.676Z" fill="#85929E"/></g></svg>