<svg width="1347" height="1348" xmlns="http://www.w3.org/2000/svg" xmlns:xlink="http://www.w3.org/1999/xlink" xml:space="preserve" overflow="hidden"><defs><clipPath id="clip0"><rect x="119" y="99" width="1347" height="1348"/></clipPath></defs><g clip-path="url(#clip0)" transform="translate(-119 -99)"><path d="M1612.5 1551.62 1584.58 1710.62 1584.69 1710.73C1550.57 1716.31 1517.56 1725.24 1486.02 1737.14L1486.02 1737.04 1382.42 1613.24 1285.03 1669.5 1340.33 1821.1 1340.54 1821.21C1314.14 1842.88 1289.95 1867.16 1268.29 1893.57L1268.18 1893.25 1116.58 1837.96 1060.32 1935.34 1184.11 2039.05C1172.23 2070.56 1163.38 2103.53 1157.81 2137.62L1157.7 2137.51 998.695 2165.43 998.695 2277.95 1157.7 2305.86 1157.81 2305.76C1163.38 2339.84 1172.23 2372.81 1184.11 2404.32L1060.32 2508.03 1116.58 2605.41 1268.18 2550.12 1268.29 2549.8C1289.95 2576.21 1314.14 2600.49 1340.54 2622.16L1340.33 2622.27 1285.03 2773.87 1382.42 2830.13 1486.02 2706.33 1486.02 2706.22C1517.56 2718.13 1550.57 2727.06 1584.69 2732.64L1584.58 2732.74 1612.5 2891.75 1724.91 2891.75 1752.83 2732.74 1752.72 2732.64C1786.83 2727.08 1819.86 2718.22 1851.39 2706.33L1955.1 2830.13 2052.48 2773.87 1997.08 2622.27C2023.42 2600.65 2047.61 2576.45 2069.23 2550.12L2220.94 2605.41 2277.09 2508.03 2153.4 2404.31C2165.29 2372.8 2174.25 2339.84 2179.81 2305.75L2338.82 2277.94 2338.82 2165.43 2179.81 2137.51C2174.24 2103.45 2165.27 2070.54 2153.4 2039.06L2277.09 1935.34 2220.94 1837.96 2069.23 1893.25C2047.61 1866.92 2023.42 1842.72 1997.08 1821.11L2052.48 1669.51 1955.1 1613.25 1851.39 1737.04C1819.86 1725.15 1786.84 1716.29 1752.72 1710.73L1752.83 1710.63 1724.91 1551.62 1612.5 1551.62ZM1668.76 1825.4C1887.64 1825.4 2065.17 2002.8 2065.17 2221.67 2065.17 2440.54 1887.66 2617.94 1668.76 2617.94 1449.85 2617.94 1272.49 2440.54 1272.49 2221.67 1272.49 2002.8 1449.88 1825.4 1668.76 1825.4Z" fill="#28B463" transform="matrix(1 0 0 1.00074 -876.246 -1450.33)"/><path d="M745 772.5C745 747.371 766.266 727 792.5 727 818.734 727 840 747.371 840 772.5 840 797.629 818.734 818 792.5 818 766.266 818 745 797.629 745 772.5Z" fill="#28B463" fill-rule="evenodd"/></g></svg>