<?xml version="1.0" encoding="UTF-8"?>
<svg viewBox="0 0 392.06259 392.06219" xmlns="http://www.w3.org/2000/svg">
 <g transform="translate(-289.68 -450.62)">
  <path d="m469.34 451.62-8.125 46.281 0.0313 0.031c-9.9316 1.6228-19.54 4.2238-28.719 7.6875v-0.031l-30.156-36.031-28.344 16.375 16.094 44.125 0.0624 0.031c-7.6842 6.3076-14.727 13.375-21.031 21.063l-0.0312-0.094-44.125-16.094-16.375 28.344 36.031 30.188c-3.458 9.1707-6.0358 18.765-7.6562 28.688l-0.0313-0.031-46.281 8.125v32.75l46.281 8.125 0.0313-0.031c1.6203 9.9223 4.1982 19.517 7.6562 28.688l-36.031 30.188 16.375 28.344 44.125-16.094 0.0312-0.094c6.3041 7.687 13.347 14.755 21.031 21.062l-0.0624 0.031-16.094 44.125 28.344 16.375 30.156-36.031v-0.0312c9.1783 3.4637 18.787 6.0647 28.719 7.6875l-0.0313 0.031 8.125 46.281h32.719l8.125-46.281-0.0312-0.031c9.9296-1.6184 19.541-4.1977 28.719-7.6563l30.187 36.031 28.344-16.375-16.125-44.125c7.6669-6.2915 14.706-13.335 21-21l44.156 16.094 16.344-28.344-36-30.188c3.4588-9.1719 6.0668-18.764 7.6875-28.688l46.281-8.0937v-32.75l-46.281-8.125c-1.621-9.9131-4.2322-19.494-7.6875-28.656l36-30.188-16.344-28.344-44.156 16.094c-6.2938-7.6652-13.333-14.708-21-21l16.125-44.125-28.344-16.375-30.187 36.031c-9.1775-3.4583-18.789-6.0378-28.719-7.6562l0.0312-0.031-8.125-46.281h-32.719zm16.375 79.688c63.71 0 115.38 51.634 115.38 115.34s-51.665 115.34-115.38 115.34-115.34-51.634-115.34-115.34 51.634-115.34 115.34-115.34z" fill="#f00"/>
 </g>
</svg>
