<?xml version="1.0" encoding="utf-8"?>
<!-- Generator: Adobe Illustrator 24.0.1, SVG Export Plug-In . SVG Version: 6.00 Build 0)  -->
<svg version="1.1" id="Capa_1" xmlns="http://www.w3.org/2000/svg" xmlns:xlink="http://www.w3.org/1999/xlink" x="0px" y="0px"
	 viewBox="0 0 502.43 158.7" style="enable-background:new 0 0 502.43 158.7;" xml:space="preserve">
<style type="text/css">
	.st0{fill:#1F6C80;}
	.st1{fill:#FFAD60;}
	.st2{fill:#34AFAA;}
	.st3{fill:#B4D379;}
</style>
<g>
	<g>
		<path class="st0" d="M28.71,132.76c-0.54,0.85-1.49,1.63-2.83,2.34c-1.34,0.71-3.09,1.07-5.23,1.07c-2.64,0-4.82-0.87-6.54-2.62
			c-1.73-1.75-2.59-4.01-2.59-6.78v-4.71c0-2.77,0.83-5.03,2.5-6.78c1.66-1.75,3.81-2.62,6.43-2.62c2.54,0,4.55,0.68,6.03,2.03
			c1.48,1.36,2.19,3.08,2.15,5.17l-0.03,0.09h-2.97c0-1.39-0.45-2.55-1.35-3.48c-0.9-0.93-2.18-1.39-3.83-1.39
			c-1.75,0-3.15,0.65-4.22,1.96c-1.07,1.31-1.6,2.97-1.6,4.97v4.74c0,2.03,0.56,3.7,1.69,5.01c1.13,1.31,2.57,1.97,4.33,1.97
			c1.35,0,2.42-0.17,3.21-0.53c0.79-0.35,1.38-0.77,1.77-1.25v-5.15h-5.18v-2.42h8.27V132.76z"/>
		<path class="st0" d="M41.26,136.17c-2.44,0-4.34-0.78-5.7-2.34c-1.37-1.56-2.05-3.61-2.05-6.15v-0.69c0-2.44,0.7-4.45,2.11-6.05
			c1.41-1.6,3.13-2.39,5.16-2.39c2.27,0,3.97,0.71,5.11,2.12c1.14,1.41,1.7,3.29,1.7,5.63v1.63H36.73l-0.05,0.08
			c0,1.71,0.38,3.09,1.13,4.15c0.75,1.06,1.9,1.59,3.45,1.59c1.05,0,1.96-0.15,2.75-0.45c0.79-0.3,1.47-0.71,2.03-1.23l1.21,2.01
			c-0.61,0.59-1.41,1.08-2.4,1.48C43.86,135.97,42.67,136.17,41.26,136.17z M40.78,120.98c-1.08,0-1.97,0.42-2.68,1.25
			c-0.71,0.83-1.14,1.9-1.29,3.19l0.03,0.08h7.66v-0.25c0-1.23-0.3-2.25-0.91-3.06C42.98,121.38,42.04,120.98,40.78,120.98z"/>
		<path class="st0" d="M61.54,131.27c0-0.68-0.26-1.23-0.78-1.66c-0.52-0.43-1.5-0.81-2.94-1.13c-2-0.43-3.53-1.03-4.61-1.8
			c-1.07-0.77-1.61-1.81-1.61-3.11c0-1.38,0.59-2.56,1.77-3.55c1.18-0.98,2.7-1.48,4.57-1.48c1.92,0,3.48,0.52,4.68,1.57
			c1.19,1.05,1.76,2.27,1.71,3.66l-0.03,0.09h-2.95c0-0.73-0.32-1.4-0.97-1.99c-0.64-0.6-1.46-0.89-2.44-0.89
			c-1.09,0-1.9,0.25-2.44,0.74c-0.54,0.49-0.81,1.08-0.81,1.76c0,0.67,0.23,1.19,0.7,1.55c0.47,0.37,1.43,0.7,2.88,1
			c2.08,0.44,3.66,1.06,4.74,1.87c1.08,0.81,1.62,1.86,1.62,3.15c0,1.51-0.61,2.74-1.83,3.69c-1.22,0.95-2.81,1.43-4.78,1.43
			c-2.17,0-3.87-0.55-5.12-1.65c-1.25-1.1-1.84-2.38-1.77-3.84l0.03-0.09h2.95c0.05,1.1,0.46,1.9,1.22,2.41
			c0.76,0.51,1.66,0.76,2.68,0.76c1.1,0,1.96-0.23,2.58-0.7C61.23,132.59,61.54,131.99,61.54,131.27z"/>
		<path class="st0" d="M73.39,114.76v4.1h3.22v2.29h-3.22v10.31c0,0.8,0.16,1.36,0.49,1.68c0.33,0.32,0.77,0.49,1.31,0.49
			c0.18,0,0.38-0.02,0.6-0.07c0.22-0.05,0.4-0.1,0.55-0.15l0.42,2.12c-0.23,0.19-0.57,0.34-1.02,0.46
			c-0.45,0.12-0.89,0.18-1.33,0.18c-1.26,0-2.25-0.38-3-1.14c-0.74-0.76-1.11-1.95-1.11-3.57v-10.31h-2.7v-2.29h2.7v-4.1H73.39z"/>
		<path class="st0" d="M83.87,114.51h-3.09v-3.15h3.09V114.51z M83.87,135.84h-3.09v-16.98h3.09V135.84z"/>
		<path class="st0" d="M88.51,127.19c0-2.51,0.68-4.58,2.04-6.21c1.36-1.63,3.21-2.44,5.54-2.44c2.35,0,4.21,0.81,5.58,2.43
			c1.37,1.62,2.05,3.69,2.05,6.21v0.35c0,2.53-0.68,4.6-2.04,6.21c-1.36,1.61-3.21,2.42-5.56,2.42c-2.34,0-4.2-0.81-5.56-2.42
			s-2.05-3.69-2.05-6.21V127.19z M91.6,127.54c0,1.8,0.38,3.29,1.14,4.46c0.76,1.17,1.89,1.76,3.38,1.76c1.48,0,2.59-0.59,3.36-1.76
			c0.76-1.17,1.15-2.66,1.15-4.46v-0.35c0-1.78-0.38-3.26-1.15-4.44c-0.77-1.18-1.9-1.77-3.38-1.77c-1.48,0-2.59,0.59-3.35,1.77
			c-0.76,1.18-1.14,2.66-1.14,4.44V127.54z M97.61,111.66h3.61l0.03,0.09l-4.22,4.08h-2.32L97.61,111.66z"/>
		<path class="st0" d="M110.87,118.86l0.22,2.53c0.56-0.9,1.27-1.6,2.13-2.1c0.85-0.5,1.82-0.75,2.91-0.75
			c1.83,0,3.25,0.54,4.25,1.61c1,1.07,1.51,2.73,1.51,4.97v10.72h-3.09v-10.66c0-1.5-0.3-2.56-0.89-3.19
			c-0.59-0.63-1.49-0.94-2.71-0.94c-0.95,0-1.76,0.19-2.42,0.57c-0.66,0.38-1.19,0.92-1.58,1.61v12.6h-3.09v-16.98H110.87z"/>
		<path class="st0" d="M134.88,127.66c0-2.73,0.58-4.93,1.75-6.61c1.17-1.67,2.8-2.51,4.9-2.51c0.99,0,1.88,0.18,2.64,0.55
			c0.77,0.37,1.43,0.9,1.97,1.6v-9.34h3.09v24.48h-2.37l-0.47-2.15c-0.55,0.82-1.24,1.43-2.06,1.85c-0.82,0.42-1.76,0.63-2.84,0.63
			c-2.07,0-3.69-0.75-4.87-2.25c-1.17-1.5-1.76-3.48-1.76-5.92V127.66z M137.97,127.99c0,1.72,0.35,3.09,1.05,4.12
			c0.7,1.03,1.79,1.55,3.26,1.55c0.92,0,1.69-0.21,2.32-0.63c0.63-0.42,1.14-1,1.54-1.76v-7.93c-0.4-0.7-0.91-1.26-1.55-1.67
			c-0.63-0.41-1.39-0.62-2.28-0.62c-1.49,0-2.58,0.61-3.29,1.84c-0.71,1.22-1.06,2.81-1.06,4.77V127.99z"/>
		<path class="st0" d="M161.5,136.17c-2.44,0-4.34-0.78-5.7-2.34c-1.37-1.56-2.05-3.61-2.05-6.15v-0.69c0-2.44,0.7-4.45,2.11-6.05
			c1.41-1.6,3.13-2.39,5.16-2.39c2.27,0,3.97,0.71,5.11,2.12c1.14,1.41,1.7,3.29,1.7,5.63v1.63h-10.86l-0.05,0.08
			c0,1.71,0.38,3.09,1.13,4.15c0.75,1.06,1.9,1.59,3.45,1.59c1.05,0,1.96-0.15,2.75-0.45c0.79-0.3,1.47-0.71,2.03-1.23l1.21,2.01
			c-0.61,0.59-1.41,1.08-2.4,1.48C164.1,135.97,162.9,136.17,161.5,136.17z M161.01,120.98c-1.08,0-1.97,0.42-2.68,1.25
			c-0.71,0.83-1.14,1.9-1.29,3.19l0.03,0.08h7.66v-0.25c0-1.23-0.3-2.25-0.91-3.06C163.21,121.38,162.28,120.98,161.01,120.98z"/>
		<path class="st0" d="M184.02,125.94v9.9h-3.09v-22.83h7.82c2.5,0,4.41,0.55,5.73,1.66c1.32,1.11,1.98,2.72,1.98,4.83
			c0,1.17-0.31,2.19-0.92,3.06c-0.61,0.87-1.5,1.56-2.68,2.07c1.26,0.41,2.16,1.07,2.71,1.99c0.55,0.92,0.82,2.05,0.82,3.4v2.15
			c0,0.71,0.08,1.35,0.24,1.91s0.43,1.03,0.82,1.38v0.38h-3.19c-0.41-0.36-0.67-0.88-0.78-1.57c-0.12-0.69-0.17-1.4-0.17-2.13v-2.09
			c0-1.23-0.36-2.23-1.08-2.98c-0.72-0.75-1.69-1.13-2.9-1.13H184.02z M184.02,123.5h4.41c1.75,0,3.01-0.33,3.77-1
			c0.77-0.66,1.15-1.68,1.15-3.04c0-1.29-0.37-2.28-1.12-2.99c-0.75-0.71-1.91-1.06-3.49-1.06h-4.72V123.5z"/>
		<path class="st0" d="M204.9,114.51h-3.09v-3.15h3.09V114.51z M204.9,135.84h-3.09v-16.98h3.09V135.84z"/>
		<path class="st0" d="M217.3,136.17c-2.44,0-4.34-0.78-5.7-2.34c-1.37-1.56-2.05-3.61-2.05-6.15v-0.69c0-2.44,0.7-4.45,2.11-6.05
			c1.41-1.6,3.13-2.39,5.16-2.39c2.27,0,3.97,0.71,5.11,2.12c1.14,1.41,1.7,3.29,1.7,5.63v1.63h-10.86l-0.05,0.08
			c0,1.71,0.38,3.09,1.13,4.15c0.75,1.06,1.9,1.59,3.45,1.59c1.05,0,1.96-0.15,2.75-0.45c0.79-0.3,1.47-0.71,2.03-1.23l1.21,2.01
			c-0.61,0.59-1.41,1.08-2.4,1.48C219.9,135.97,218.7,136.17,217.3,136.17z M216.81,120.98c-1.08,0-1.97,0.42-2.68,1.25
			c-0.71,0.83-1.14,1.9-1.29,3.19l0.03,0.08h7.66v-0.25c0-1.23-0.3-2.25-0.91-3.06C219.01,121.38,218.08,120.98,216.81,120.98z"/>
		<path class="st0" d="M237.57,131.27c0-0.68-0.26-1.23-0.78-1.66c-0.52-0.43-1.5-0.81-2.94-1.13c-2-0.43-3.53-1.03-4.61-1.8
			c-1.07-0.77-1.61-1.81-1.61-3.11c0-1.38,0.59-2.56,1.77-3.55c1.18-0.98,2.7-1.48,4.57-1.48c1.92,0,3.48,0.52,4.68,1.57
			c1.19,1.05,1.76,2.27,1.71,3.66l-0.03,0.09h-2.95c0-0.73-0.32-1.4-0.97-1.99c-0.64-0.6-1.46-0.89-2.44-0.89
			c-1.09,0-1.9,0.25-2.44,0.74c-0.54,0.49-0.81,1.08-0.81,1.76c0,0.67,0.23,1.19,0.7,1.55c0.47,0.37,1.43,0.7,2.88,1
			c2.08,0.44,3.66,1.06,4.74,1.87c1.08,0.81,1.62,1.86,1.62,3.15c0,1.51-0.61,2.74-1.83,3.69c-1.22,0.95-2.81,1.43-4.78,1.43
			c-2.17,0-3.87-0.55-5.12-1.65c-1.25-1.1-1.84-2.38-1.77-3.84l0.03-0.09h2.95c0.05,1.1,0.46,1.9,1.22,2.41
			c0.76,0.51,1.66,0.76,2.68,0.76c1.1,0,1.96-0.23,2.58-0.7C237.26,132.59,237.57,131.99,237.57,131.27z"/>
		<path class="st0" d="M244.57,127.66c0-2.73,0.58-4.93,1.75-6.61c1.17-1.67,2.8-2.51,4.89-2.51c1.08,0,2.02,0.22,2.84,0.65
			c0.82,0.43,1.5,1.06,2.06,1.88l0.38-2.21h2.46v17.07c0,2.18-0.63,3.85-1.9,5.01c-1.27,1.17-3.09,1.75-5.48,1.75
			c-0.82,0-1.7-0.11-2.64-0.34c-0.95-0.23-1.78-0.53-2.5-0.92l0.47-2.4c0.6,0.31,1.32,0.57,2.16,0.76c0.84,0.19,1.67,0.29,2.49,0.29
			c1.51,0,2.6-0.34,3.29-1.03c0.69-0.69,1.03-1.73,1.03-3.13V134c-0.55,0.71-1.22,1.25-1.99,1.62c-0.77,0.37-1.67,0.55-2.68,0.55
			c-2.07,0-3.69-0.75-4.86-2.25c-1.17-1.5-1.75-3.48-1.75-5.92V127.66z M247.66,127.99c0,1.71,0.35,3.08,1.05,4.11
			c0.7,1.04,1.78,1.55,3.25,1.55c0.93,0,1.71-0.21,2.34-0.64c0.63-0.42,1.15-1.02,1.55-1.8v-7.82c-0.4-0.72-0.92-1.29-1.55-1.72
			c-0.64-0.42-1.41-0.64-2.31-0.64c-1.48,0-2.57,0.61-3.27,1.84c-0.71,1.22-1.06,2.81-1.06,4.77V127.99z"/>
		<path class="st0" d="M263.28,127.19c0-2.51,0.68-4.58,2.04-6.21c1.36-1.63,3.21-2.44,5.54-2.44c2.35,0,4.21,0.81,5.58,2.43
			c1.37,1.62,2.05,3.69,2.05,6.21v0.35c0,2.53-0.68,4.6-2.04,6.21c-1.36,1.61-3.21,2.42-5.56,2.42c-2.34,0-4.2-0.81-5.56-2.42
			c-1.37-1.62-2.05-3.69-2.05-6.21V127.19z M266.37,127.54c0,1.8,0.38,3.29,1.14,4.46c0.76,1.17,1.89,1.76,3.38,1.76
			c1.48,0,2.59-0.59,3.36-1.76c0.76-1.17,1.15-2.66,1.15-4.46v-0.35c0-1.78-0.38-3.26-1.15-4.44c-0.77-1.18-1.9-1.77-3.38-1.77
			c-1.48,0-2.59,0.59-3.35,1.77c-0.76,1.18-1.14,2.66-1.14,4.44V127.54z"/>
		<path class="st0" d="M309.18,135.84h-3.09v-10.09h-11.1v10.09h-3.09v-22.85h3.09v10.33h11.1v-10.33h3.09V135.84z"/>
		<path class="st0" d="M313.98,127.19c0-2.51,0.68-4.58,2.04-6.21c1.36-1.63,3.21-2.44,5.54-2.44c2.35,0,4.21,0.81,5.58,2.43
			c1.37,1.62,2.05,3.69,2.05,6.21v0.35c0,2.53-0.68,4.6-2.04,6.21c-1.36,1.61-3.21,2.42-5.56,2.42c-2.34,0-4.2-0.81-5.56-2.42
			c-1.37-1.62-2.05-3.69-2.05-6.21V127.19z M317.07,127.54c0,1.8,0.38,3.29,1.14,4.46c0.76,1.17,1.89,1.76,3.38,1.76
			c1.48,0,2.59-0.59,3.36-1.76c0.76-1.17,1.15-2.66,1.15-4.46v-0.35c0-1.78-0.38-3.26-1.15-4.44c-0.77-1.18-1.9-1.77-3.38-1.77
			c-1.48,0-2.59,0.59-3.35,1.77c-0.76,1.18-1.14,2.66-1.14,4.44V127.54z"/>
		<path class="st0" d="M343.45,131.27c0-0.68-0.26-1.23-0.78-1.66c-0.52-0.43-1.5-0.81-2.94-1.13c-2-0.43-3.53-1.03-4.61-1.8
			c-1.07-0.77-1.61-1.81-1.61-3.11c0-1.38,0.59-2.56,1.77-3.55c1.18-0.98,2.7-1.48,4.57-1.48c1.92,0,3.48,0.52,4.68,1.57
			c1.19,1.05,1.76,2.27,1.71,3.66l-0.03,0.09h-2.95c0-0.73-0.32-1.4-0.97-1.99c-0.64-0.6-1.46-0.89-2.44-0.89
			c-1.09,0-1.9,0.25-2.44,0.74c-0.54,0.49-0.81,1.08-0.81,1.76c0,0.67,0.23,1.19,0.7,1.55c0.47,0.37,1.43,0.7,2.88,1
			c2.08,0.44,3.66,1.06,4.74,1.87c1.08,0.81,1.62,1.86,1.62,3.15c0,1.51-0.61,2.74-1.83,3.69c-1.22,0.95-2.81,1.43-4.78,1.43
			c-2.17,0-3.87-0.55-5.12-1.65c-1.25-1.1-1.84-2.38-1.77-3.84l0.03-0.09h2.95c0.05,1.1,0.46,1.9,1.22,2.41
			c0.76,0.51,1.66,0.76,2.68,0.76c1.1,0,1.96-0.23,2.58-0.7C343.14,132.59,343.45,131.99,343.45,131.27z"/>
		<path class="st0" d="M365.47,127.99c0,2.45-0.59,4.42-1.76,5.92c-1.17,1.5-2.79,2.25-4.85,2.25c-1.05,0-1.96-0.18-2.75-0.53
			c-0.79-0.35-1.46-0.88-2.02-1.58v8.3H351v-23.51h2.37l0.49,2.2c0.55-0.82,1.24-1.44,2.07-1.87c0.83-0.43,1.79-0.64,2.89-0.64
			c2.1,0,3.74,0.83,4.9,2.5c1.17,1.67,1.75,3.87,1.75,6.61V127.99z M362.37,127.66c0-1.92-0.38-3.51-1.14-4.75
			c-0.76-1.24-1.88-1.86-3.35-1.86c-0.89,0-1.65,0.2-2.28,0.6c-0.63,0.4-1.14,0.95-1.52,1.66v8.21c0.39,0.7,0.89,1.25,1.52,1.64
			s1.4,0.59,2.31,0.59c1.46,0,2.57-0.54,3.33-1.61c0.75-1.07,1.13-2.46,1.13-4.15V127.66z"/>
		<path class="st0" d="M373.22,114.51h-3.09v-3.15h3.09V114.51z M373.22,135.84h-3.09v-16.98h3.09V135.84z"/>
		<path class="st0" d="M382.88,114.76v4.1h3.22v2.29h-3.22v10.31c0,0.8,0.16,1.36,0.49,1.68c0.33,0.32,0.77,0.49,1.31,0.49
			c0.18,0,0.38-0.02,0.6-0.07c0.22-0.05,0.4-0.1,0.55-0.15l0.42,2.12c-0.23,0.19-0.57,0.34-1.02,0.46
			c-0.45,0.12-0.89,0.18-1.33,0.18c-1.26,0-2.25-0.38-3-1.14c-0.74-0.76-1.11-1.95-1.11-3.57v-10.31h-2.7v-2.29h2.7v-4.1H382.88z"/>
		<path class="st0" d="M400.46,135.84c-0.1-0.51-0.19-0.97-0.24-1.36c-0.06-0.39-0.09-0.79-0.1-1.18c-0.58,0.82-1.33,1.5-2.25,2.05
			c-0.93,0.55-1.92,0.82-2.99,0.82c-1.77,0-3.12-0.45-4.04-1.36c-0.93-0.9-1.39-2.15-1.39-3.74c0-1.62,0.66-2.89,1.97-3.81
			c1.31-0.92,3.09-1.37,5.34-1.37h3.36v-1.68c0-0.99-0.3-1.78-0.91-2.36c-0.61-0.58-1.46-0.87-2.57-0.87c-1,0-1.82,0.25-2.43,0.75
			c-0.62,0.5-0.93,1.1-0.93,1.8l-2.93,0.03l-0.03-0.09c-0.07-1.23,0.5-2.36,1.73-3.39c1.23-1.03,2.82-1.54,4.76-1.54
			c1.92,0,3.47,0.49,4.65,1.47c1.17,0.98,1.76,2.39,1.76,4.23v8.18c0,0.61,0.03,1.19,0.09,1.76s0.18,1.12,0.35,1.66H400.46z
			 M395.33,133.58c1.12,0,2.13-0.29,3.03-0.86c0.9-0.58,1.49-1.23,1.76-1.98v-2.76h-3.47c-1.25,0-2.24,0.31-2.99,0.94
			c-0.75,0.63-1.12,1.37-1.12,2.21c0,0.75,0.24,1.35,0.71,1.79C393.71,133.36,394.41,133.58,395.33,133.58z"/>
		<path class="st0" d="M411.65,135.84h-3.09v-24.48h3.09V135.84z"/>
		<path class="st0" d="M427.45,135.84c-0.1-0.51-0.19-0.97-0.24-1.36c-0.06-0.39-0.09-0.79-0.1-1.18c-0.58,0.82-1.33,1.5-2.25,2.05
			c-0.93,0.55-1.92,0.82-2.99,0.82c-1.77,0-3.12-0.45-4.04-1.36c-0.93-0.9-1.39-2.15-1.39-3.74c0-1.62,0.66-2.89,1.97-3.81
			c1.31-0.92,3.09-1.37,5.34-1.37h3.36v-1.68c0-0.99-0.3-1.78-0.91-2.36c-0.61-0.58-1.46-0.87-2.57-0.87c-1,0-1.82,0.25-2.43,0.75
			c-0.62,0.5-0.93,1.1-0.93,1.8l-2.93,0.03l-0.03-0.09c-0.07-1.23,0.5-2.36,1.73-3.39c1.23-1.03,2.82-1.54,4.76-1.54
			c1.92,0,3.47,0.49,4.65,1.47c1.17,0.98,1.76,2.39,1.76,4.23v8.18c0,0.61,0.03,1.19,0.09,1.76s0.18,1.12,0.35,1.66H427.45z
			 M422.32,133.58c1.12,0,2.13-0.29,3.03-0.86c0.9-0.58,1.49-1.23,1.76-1.98v-2.76h-3.47c-1.25,0-2.24,0.31-2.99,0.94
			c-0.75,0.63-1.12,1.37-1.12,2.21c0,0.75,0.24,1.35,0.71,1.79C420.7,133.36,421.4,133.58,422.32,133.58z"/>
		<path class="st0" d="M443.33,121.59l-1.59-0.09c-0.82,0-1.5,0.19-2.06,0.58c-0.56,0.39-0.99,0.93-1.29,1.63v12.13h-3.09v-16.98
			h2.76l0.3,2.48c0.48-0.88,1.08-1.56,1.78-2.06c0.71-0.49,1.52-0.74,2.44-0.74c0.23,0,0.45,0.02,0.66,0.05
			c0.21,0.04,0.38,0.08,0.52,0.12L443.33,121.59z"/>
		<path class="st0" d="M450.5,114.51h-3.09v-3.15h3.09V114.51z M450.5,135.84h-3.09v-16.98h3.09V135.84z"/>
		<path class="st0" d="M455.14,127.19c0-2.51,0.68-4.58,2.04-6.21c1.36-1.63,3.21-2.44,5.54-2.44c2.35,0,4.21,0.81,5.58,2.43
			c1.37,1.62,2.05,3.69,2.05,6.21v0.35c0,2.53-0.68,4.6-2.04,6.21c-1.36,1.61-3.21,2.42-5.56,2.42c-2.34,0-4.2-0.81-5.56-2.42
			c-1.37-1.62-2.05-3.69-2.05-6.21V127.19z M458.24,127.54c0,1.8,0.38,3.29,1.14,4.46c0.76,1.17,1.89,1.76,3.38,1.76
			c1.48,0,2.59-0.59,3.36-1.76c0.76-1.17,1.15-2.66,1.15-4.46v-0.35c0-1.78-0.38-3.26-1.15-4.44c-0.77-1.18-1.9-1.77-3.38-1.77
			c-1.48,0-2.59,0.59-3.35,1.77c-0.76,1.18-1.14,2.66-1.14,4.44V127.54z"/>
		<path class="st0" d="M484.61,131.27c0-0.68-0.26-1.23-0.78-1.66c-0.52-0.43-1.5-0.81-2.94-1.13c-2-0.43-3.53-1.03-4.61-1.8
			c-1.07-0.77-1.61-1.81-1.61-3.11c0-1.38,0.59-2.56,1.77-3.55c1.18-0.98,2.7-1.48,4.57-1.48c1.92,0,3.48,0.52,4.68,1.57
			c1.19,1.05,1.76,2.27,1.71,3.66l-0.03,0.09h-2.95c0-0.73-0.32-1.4-0.97-1.99c-0.64-0.6-1.46-0.89-2.44-0.89
			c-1.09,0-1.9,0.25-2.44,0.74c-0.54,0.49-0.81,1.08-0.81,1.76c0,0.67,0.23,1.19,0.7,1.55c0.47,0.37,1.43,0.7,2.88,1
			c2.08,0.44,3.66,1.06,4.74,1.87c1.08,0.81,1.62,1.86,1.62,3.15c0,1.51-0.61,2.74-1.83,3.69c-1.22,0.95-2.81,1.43-4.78,1.43
			c-2.17,0-3.87-0.55-5.12-1.65c-1.25-1.1-1.84-2.38-1.77-3.84l0.03-0.09h2.95c0.05,1.1,0.46,1.9,1.22,2.41
			c0.76,0.51,1.66,0.76,2.68,0.76c1.1,0,1.96-0.23,2.58-0.7C484.3,132.59,484.61,131.99,484.61,131.27z"/>
	</g>
	<g>
		<path class="st0" d="M228.27,63.75c-1.45,0.67-2.79,1.15-4.03,1.45c-1.24,0.3-2.75,0.5-4.53,0.59c-1.78,0.09-3.99,0.12-6.61,0.09
			c-2.63-0.03-6.02-0.05-10.19-0.05v18.75h-12.77V21.17h28.72c3.08,0,5.96,0.59,8.65,1.77c2.69,1.18,5.04,2.78,7.07,4.8
			c2.02,2.02,3.62,4.41,4.8,7.16c1.18,2.75,1.77,5.66,1.77,8.74c0,4.53-1.19,8.58-3.58,12.14C235.17,59.34,232.08,62,228.27,63.75z
			 M202.91,53.15h15.95c2.72,0,5.01-0.95,6.89-2.85c1.87-1.9,2.81-4.45,2.81-7.66c0-1.33-0.26-2.61-0.77-3.85
			c-0.51-1.24-1.21-2.34-2.08-3.31c-0.88-0.97-1.9-1.74-3.08-2.31c-1.18-0.57-2.43-0.86-3.76-0.86h-15.95v20.57v0.09V53.15z
			 M242.68,84.59h-16.13l-9.69-11.96l10.6-6.89L242.68,84.59z"/>
		<path class="st1" d="M248.57,21.44c0-3.8,3.08-6.79,7.25-6.79c4.17,0,7.25,2.81,7.25,6.52c0,3.99-2.99,7.07-7.25,7.07
			C251.65,28.24,248.57,25.25,248.57,21.44z M250.11,36.21h11.32v48.38h-11.32V36.21z"/>
		<path class="st2" d="M320.68,64.02h-37.96c1.36,7.07,7.25,11.6,15.67,11.6c5.44,0,9.69-1.72,13.14-5.25l6.07,6.98
			c-4.35,5.16-11.14,7.88-19.48,7.88c-16.22,0-26.73-10.42-26.73-24.82s10.6-24.73,25-24.73c14.13,0,24.46,9.87,24.46,25
			C320.86,61.58,320.77,62.93,320.68,64.02z M282.63,56.5h27.45c-0.91-6.98-6.25-11.78-13.68-11.78
			C289.06,44.72,283.72,49.44,282.63,56.5z"/>
		<path class="st2" d="M325.3,79.78l4.35-8.61c4.26,2.81,10.78,4.8,16.85,4.8c7.16,0,10.15-1.99,10.15-5.35
			c0-9.24-29.9-0.54-29.9-19.84c0-9.15,8.24-15.13,21.29-15.13c6.43,0,13.77,1.54,18.12,4.17l-4.35,8.61
			c-4.62-2.72-9.24-3.62-13.86-3.62c-6.89,0-10.15,2.26-10.15,5.44c0,9.78,29.9,1.09,29.9,20.02c0,9.06-8.33,14.95-21.92,14.95
			C337.71,85.22,329.65,82.86,325.3,79.78z"/>
		<path class="st2" d="M424.59,36.21v41.04c0,17.57-9.15,25.55-26.09,25.55c-9.06,0-18.03-2.36-23.55-6.89l5.07-8.52
			c4.26,3.53,11.14,5.8,17.85,5.8c10.69,0,15.4-4.89,15.4-14.68v-2.54c-3.99,4.35-9.69,6.43-16.22,6.43
			c-13.86,0-24.46-9.42-24.46-23.46c0-14.04,10.6-23.28,24.46-23.28c6.79,0,12.77,2.17,16.76,6.98v-6.43H424.59z M413.45,58.95
			c0-8.15-6.16-13.68-14.68-13.68c-8.61,0-14.77,5.53-14.77,13.68c0,8.24,6.16,13.86,14.77,13.86
			C407.29,72.81,413.45,67.19,413.45,58.95z"/>
		<path class="st2" d="M434.56,60.4c0-14.49,10.87-24.73,25.73-24.73c15.04,0,25.82,10.24,25.82,24.73s-10.78,24.82-25.82,24.82
			C445.43,85.22,434.56,74.89,434.56,60.4z M474.69,60.4c0-9.24-6.16-15.13-14.4-15.13c-8.15,0-14.31,5.89-14.31,15.13
			s6.16,15.13,14.31,15.13C468.53,75.53,474.69,69.64,474.69,60.4z"/>
	</g>
	<g>
		<path class="st3" d="M44.85,47.43c2.85,0.77,5.49,1.64,7.89,2.59c2.41,0.95,4.49,2.11,6.24,3.48c1.75,1.37,3.12,3,4.1,4.91
			c0.98,1.9,1.47,4.16,1.47,6.78v0.27c0,2.85-0.58,5.47-1.74,7.85c-1.16,2.38-2.76,4.41-4.82,6.11c-2.05,1.69-4.46,3-7.22,3.92
			c-2.77,0.92-5.78,1.38-9.05,1.38c-3.03,0-5.93-0.37-8.7-1.11c-2.76-0.74-5.28-1.71-7.54-2.92c-2.26-1.21-4.24-2.58-5.93-4.12
			c-1.69-1.53-2.99-3.13-3.88-4.79l10.44-6.6c1.13,1.25,2.26,2.36,3.39,3.34c1.13,0.98,2.32,1.81,3.57,2.5
			c1.25,0.68,2.62,1.2,4.1,1.56c1.49,0.36,3.12,0.54,4.91,0.54c1.13,0,2.27-0.12,3.43-0.36c1.16-0.24,2.21-0.63,3.17-1.16
			c0.95-0.54,1.72-1.21,2.32-2.01c0.59-0.8,0.89-1.8,0.89-2.99c0-0.83-0.21-1.64-0.62-2.41c-0.42-0.77-1.13-1.53-2.14-2.28
			c-1.01-0.74-2.38-1.46-4.1-2.14c-1.73-0.69-3.89-1.36-6.51-2.01c-3.21-0.77-6.1-1.65-8.65-2.63c-2.56-0.98-4.73-2.17-6.51-3.57
			c-1.78-1.4-3.15-3.08-4.1-5.05c-0.95-1.96-1.43-4.29-1.43-6.97c0-2.92,0.55-5.55,1.65-7.91c1.1-2.35,2.63-4.33,4.59-5.94
			s4.27-2.84,6.91-3.71c2.64-0.86,5.49-1.3,8.52-1.3c3.15,0,6,0.36,8.56,1.07c2.56,0.71,4.85,1.62,6.87,2.72
			c2.02,1.1,3.79,2.35,5.31,3.75c1.52,1.4,2.78,2.75,3.79,4.06l-10.26,6.6c-2.56-2.44-4.98-4.15-7.27-5.13
			c-2.29-0.98-4.68-1.47-7.18-1.47c-1.55,0-2.87,0.19-3.97,0.58c-1.1,0.39-2.01,0.86-2.72,1.43c-0.71,0.57-1.26,1.2-1.65,1.92
			c-0.39,0.71-0.58,1.4-0.58,2.05c0,1.19,0.31,2.22,0.94,3.08c0.62,0.86,1.55,1.65,2.76,2.36c1.22,0.71,2.73,1.37,4.55,1.96
			C40.47,46.24,42.54,46.84,44.85,47.43z"/>
		<path class="st3" d="M121.74,35.92l-21.67,50.93c-4.64,11.59-11.24,15.07-19.89,15.07c-4.91,0-10.26-1.61-13.38-4.37l5.08-9.9
			c2.14,1.87,5.08,3.03,7.85,3.03c3.84,0,5.98-1.69,7.85-5.98l0.18-0.45L66.97,35.92h14.36L94.8,68.48l13.56-32.55H121.74z"/>
		<path class="st3" d="M177.39,56.44v27.47h-13.91V58.58c0-7.76-3.57-11.33-9.72-11.33c-6.69,0-11.51,4.1-11.51,12.93v23.72h-13.91
			V35.92h13.29v5.62c3.75-4.1,9.36-6.33,15.88-6.33C168.83,35.21,177.39,41.81,177.39,56.44z"/>
	</g>
</g>
</svg>
